# xmcd
#
# Track frame offsets:
#  182
#  16177
#  32397
#  47627
#  77295
#  99712
#  107077
#  151705
#  166832
#
# Disc length: 2355 seconds
#
# Revision: 0
# Processed by: cddbd v1.5.2PL0 Copyright (c) Steve Scherf et al.
# Submitted via: Collectorz.com_Music_Collector 6.11
#
DISCID=51093109
DTITLE=The Climax Blues Band - Tightly Knit
DYEAR=2000
DGENRE=Blues
TTITLE0=Hey Mama
TTITLE1=Shoot Her If She Runs
TTITLE2=Towards The Sun
TTITLE3=Come On In My Kitchen
TTITLE4=Who Killed McSwiggen
TTITLE5=Little Link
TTITLE6=St. Michael's Blues
TTITLE7=Bide My Time
TTITLE8=That's All
EXTD=
EXTT0=
EXTT1=
EXTT2=
EXTT3=
EXTT4=
EXTT5=
EXTT6=
EXTT7=
EXTT8=
PLAYORDER=
